
      <svg
        width="300"
        height="205"
        viewBox="0 0 300 205"
        fill="none"
        xmlns="http://www.w3.org/2000/svg"
      >
        <style>
          .header {
            font: 600 18px 'Segoe UI', Ubuntu, Sans-Serif;
            fill: #70a5fd;
            animation: fadeInAnimation 0.8s ease-in-out forwards;
          }
          
    .lang-name { font: 400 11px 'Segoe UI', Ubuntu, Sans-Serif; fill: #38bdae }
  

          
        </style>

        undefined

        <rect
          data-testid="card-bg"
          x="0.5"
          y="0.5"
          rx="4.5"
          height="99%"
          stroke="#E4E2E2"
          width="299"
          fill="#1a1b27"
          stroke-opacity="0"
        />

        
      <g
        data-testid="card-title"
        transform="translate(25, 35)"
      >
        <g transform="translate(0, 0)">
      <text
        x="0"
        y="0"
        class="header"
        data-testid="header"
      >Most Used Languages</text>
    </g>
      </g>
    

        <g
          data-testid="main-card-body"
          transform="translate(0, 55)"
        >
          
    <svg data-testid="lang-items" x="25">
      <g transform="translate(0, 0)">
    <text data-testid="lang-name" x="2" y="15" class="lang-name">JavaScript</text>
    <text x="215" y="34" class="lang-name">42.08%</text>
    <svg width="205">
      <rect rx="5" ry="5" x="0" y="25" width="205" height="8" fill="#ddd"></rect>
      <rect
        height="8"
        fill="#f1e05a"
        rx="5" ry="5" x="0" y="25"
        data-testid="lang-progress"
        width="42.08%"
      >
      </rect>
    </svg>
  </g><g transform="translate(0, 40)">
    <text data-testid="lang-name" x="2" y="15" class="lang-name">CSS</text>
    <text x="215" y="34" class="lang-name">31.26%</text>
    <svg width="205">
      <rect rx="5" ry="5" x="0" y="25" width="205" height="8" fill="#ddd"></rect>
      <rect
        height="8"
        fill="#663399"
        rx="5" ry="5" x="0" y="25"
        data-testid="lang-progress"
        width="31.26%"
      >
      </rect>
    </svg>
  </g><g transform="translate(0, 80)">
    <text data-testid="lang-name" x="2" y="15" class="lang-name">HTML</text>
    <text x="215" y="34" class="lang-name">26.67%</text>
    <svg width="205">
      <rect rx="5" ry="5" x="0" y="25" width="205" height="8" fill="#ddd"></rect>
      <rect
        height="8"
        fill="#e34c26"
        rx="5" ry="5" x="0" y="25"
        data-testid="lang-progress"
        width="26.67%"
      >
      </rect>
    </svg>
  </g>
    </svg>
  
        </g>
      </svg>
    